<?xml version="1.0" encoding="UTF-8"?>
<svg xmlns="http://www.w3.org/2000/svg" version="1.1" viewBox="0 0 48 48">
  <!-- Generator: Adobe Illustrator 29.6.1, SVG Export Plug-In . SVG Version: 2.1.1 Build 9)  -->
  <defs>
    <style>
      .st0 {
        opacity: .18;
      }

      .st1 {
        fill: #fff;
      }

      .st1, .st2, .st3 {
        fill-rule: evenodd;
      }

      .st4 {
        fill: #ffce52;
      }

      .st5 {
        opacity: .57;
      }

      .st6, .st7 {
        fill: #273941;
      }

      .st6, .st8 {
        display: none;
      }

      .st2 {
        fill: #424242;
      }

      .st3 {
        fill: #5d4037;
      }
    </style>
  </defs>
  <g id="Layer_1" class="st8">
    <g id="reference" class="st5">
      <g id="_21-hungry" class="st0">
        <circle id="ellipse" class="st4" cx="24" cy="24" r="23"/>
        <ellipse id="eye2" class="st7" cx="33" cy="16" rx="3" ry="4"/>
        <ellipse id="eye1" class="st7" cx="15" cy="16" rx="3" ry="4"/>
        <path id="mouth" class="st6" d="M9,26c0-.83,6.71-1,15-1s15,.17,15,1c0,6.75-8.18,11-15,11s-15-4.25-15-11Z"/>
      </g>
    </g>
  </g>
  <g id="Layer_2">
    <path class="st3" d="M24,28.04h-11.96c0,6.31,5.35,11.43,11.96,11.43s11.96-5.12,11.96-11.43h-11.96Z"/>
  </g>
  <g id="Layer_3" class="st8">
    <path class="st3" d="M34.83,13.99c.35.3.65.66.88,1.05h0c.51.88.68,1.96.4,3.02-.28,1.06-.97,1.91-1.86,2.42h0c-.88.51-1.96.69-3.02.4-1.06-.28-1.91-.97-2.42-1.86h0c-.23-.4-.39-.83-.47-1.29l-1.19.69c-.42.24-.96.1-1.2-.33s-.1-.96.33-1.2l8.94-5.16c.42-.24.96-.1,1.2.33s.1.96-.33,1.2l-1.26.73h0Z"/>
    <path class="st3" d="M20.52,17.74c-.08.46-.24.89-.47,1.29h0c-.51.88-1.36,1.57-2.42,1.86-1.06.28-2.14.11-3.02-.4h0c-.88-.51-1.57-1.36-1.86-2.42-.28-1.06-.11-2.14.4-3.02h0c.23-.39.52-.75.88-1.05l-1.26-.73c-.42-.24-.57-.78-.33-1.2s.78-.57,1.2-.33l8.94,5.16c.42.24.57.78.33,1.2s-.78.57-1.2.33l-1.19-.69h0Z"/>
    <path class="st1" d="M15.75,14.99c-.46.19-.84.53-1.07.94h0c-.28.49-.38,1.09-.22,1.69.16.59.54,1.06,1.03,1.35h0c.49.28,1.09.38,1.68.22.59-.16,1.06-.54,1.35-1.03h0c.24-.42.34-.9.28-1.4l-3.05-1.76h0Z"/>
    <path class="st2" d="M18.22,16.41l-1.81-1.05c-.49.2-.83.67-.83,1.23,0,.73.59,1.33,1.33,1.33s1.33-.59,1.33-1.33c0-.06,0-.12-.01-.18h0Z"/>
    <path class="st3" d="M28.34,17.74c.08.46.24.89.47,1.29h0c.51.88,1.36,1.57,2.42,1.86,1.06.28,2.14.11,3.02-.4h0c.88-.51,1.57-1.36,1.86-2.42.28-1.06.11-2.14-.4-3.02h0c-.23-.39-.52-.75-.88-1.05l1.26-.73c.42-.24.57-.78.33-1.2-.24-.42-.78-.57-1.2-.33l-8.94,5.16c-.42.24-.57.78-.33,1.2.24.42.78.57,1.2.33l1.19-.69h0Z"/>
    <path class="st1" d="M33.11,14.99c.46.19.84.53,1.07.94h0c.28.49.38,1.09.22,1.69-.16.59-.54,1.06-1.03,1.35h0c-.49.28-1.09.38-1.68.22-.59-.16-1.06-.54-1.35-1.03h0c-.24-.42-.34-.9-.28-1.4l3.05-1.76h0Z"/>
    <path class="st2" d="M30.64,16.41l1.81-1.05c.49.2.83.67.83,1.23,0,.73-.59,1.33-1.33,1.33s-1.33-.59-1.33-1.33c0-.06,0-.12.01-.18h0Z"/>
  </g>
</svg>