<?xml version="1.0" encoding="UTF-8"?>
<svg id="Layer_1" xmlns="http://www.w3.org/2000/svg" version="1.1" viewBox="0 0 48 48">
  <!-- Generator: Adobe Illustrator 29.6.1, SVG Export Plug-In . SVG Version: 2.1.1 Build 9)  -->
  <defs>
    <style>
      .st0 {
        fill: #ffce52;
      }

      .st0, .st1, .st2, .st3, .st4 {
        display: none;
      }

      .st5 {
        fill: #8a293d;
      }

      .st1 {
        fill: #ffb32b;
      }

      .st2, .st6 {
        fill: #273941;
      }

      .st7 {
        fill: #cf4054;
      }

      .st8 {
        fill: #ae2d4c;
      }

      .st9 {
        fill: #141e21;
      }

      .st3 {
        fill: #f6fafd;
      }

      .st4 {
        fill: #ffe369;
      }

      .st10 {
        fill: #f29410;
      }
    </style>
  </defs>
  <g id="_19-tongue">
    <circle class="st0" cx="24" cy="24" r="23"/>
    <path class="st2" d="M37.55,19.9c-1.79-.9-3.84-.9-7.55-.9-.55,0-1-.45-1-1,0-2.27,3.57-5,8-5v2c-2-.05-3.93.67-5.42,2,3.06.02,4.96.15,6.87,1.1l-.89,1.8Z"/>
    <path class="st2" d="M10.45,19.9l-.89-1.79c1.9-.95,3.81-1.08,6.87-1.1-1.48-1.34-3.42-2.06-5.42-2.01v-2c4.43,0,8,2.73,8,5,0,.55-.45,1-1,1-3.72,0-5.76,0-7.55.9Z"/>
    <path class="st4" d="M24,4c12.15,0,22,8.51,22,19h.97C46.38,10.31,35.62.5,22.93,1.1,11.07,1.65,1.58,11.14,1.02,23h.98C2,12.51,11.85,4,24,4Z"/>
    <path class="st1" d="M46,23c0,10.49-9.85,19-22,19S2,33.49,2,23h-.98c-.01.33-.02.67-.02,1,0,12.7,10.3,23,23,23s23-10.3,23-23c0-.33-.01-.67-.03-1h-.97Z"/>
    <ellipse class="st3" cx="37" cy="9" rx=".83" ry="1.15" transform="translate(4.48 28.81) rotate(-45.02)"/>
    <ellipse class="st3" cx="30.75" cy="4.5" rx=".41" ry=".57" transform="translate(5.83 23.07) rotate(-45.02)"/>
    <ellipse class="st3" cx="34" cy="7" rx="1.65" ry="2.3" transform="translate(5.02 26.1) rotate(-45.02)"/>
    <path class="st6" d="M40,25c.02,3.19-1.17,6.27-3.34,8.61-2.09,2.21-4.73,3.82-7.66,4.65v-4.26c0-1.1-.9-2-2-2h-6c-1.1,0-2,.9-2,2v4.26c-5.75-1.7-11-6.28-11-13.26.47,0,2.26.5,5.04,1,3.62.66,7.28.99,10.96,1,5.39-.01,10.77-.68,16-2Z"/>
    <path class="st7" d="M24,32h3c1.1,0,2,.9,2,2v5c0,2.76-2.24,5-5,5s-5-2.24-5-5v-5c0-1.1.9-2,2-2h3Z"/>
    <path class="st5" d="M24,42c-2.76,0-5-2.24-5-5v2c0,2.76,2.24,5,5,5s5-2.24,5-5v-2c0,2.76-2.24,5-5,5Z"/>
    <path class="st9" d="M24,29c5.34-.02,10.65-.67,15.83-1.95.11-.68.17-1.36.17-2.05-5.23,1.32-10.61,1.99-16,2-3.68,0-7.34-.34-10.96-1-2.78-.5-4.57-1-5.04-1,0,.68.06,1.35.17,2.02.64.08,2.34.53,4.87.98,3.62.66,7.28.99,10.96,1Z"/>
    <path class="st10" d="M24,44c-2.76,0-5-2.24-5-5v2c0,2.76,2.24,5,5,5s5-2.24,5-5v-2c0,2.76-2.24,5-5,5Z"/>
    <path class="st8" d="M27,32h-6c-1.1,0-2,.9-2,2v2c0-1.1.9-2,2-2h.43c1.02,0,1.88.77,1.99,1.78l.58,5.22.58-5.22c.11-1.01.97-1.78,1.99-1.78h.43c1.1,0,2,.9,2,2v-2c0-1.1-.9-2-2-2Z"/>
    <path class="st9" d="M19,34c0-.28.06-.56.18-.82-.72.32-1.18,1.03-1.18,1.82v2.93c.33.12.66.23,1,.33v-4.26Z"/>
    <path class="st9" d="M28.82,33.18c.12.26.18.54.18.82v4.26c.34-.1.67-.21,1-.33v-2.93c0-.79-.46-1.5-1.18-1.82Z"/>
  </g>
</svg>