<?xml version="1.0" encoding="UTF-8"?>
<svg id="Layer_1" xmlns="http://www.w3.org/2000/svg" version="1.1" viewBox="0 0 48 48">
  <!-- Generator: Adobe Illustrator 29.6.1, SVG Export Plug-In . SVG Version: 2.1.1 Build 9)  -->
  <defs>
    <style>
      .st0 {
        fill: #ffce52;
      }

      .st0, .st1, .st2, .st3, .st4, .st5, .st6, .st7, .st8 {
        display: none;
      }

      .st1, .st9 {
        fill: #f06880;
      }

      .st2 {
        fill: #141e21;
      }

      .st3 {
        fill: #ffb32b;
      }

      .st4 {
        fill: #273941;
      }

      .st5 {
        fill: #00a3e1;
      }

      .st6 {
        fill: #3bc5f6;
      }

      .st7 {
        fill: #f6fafd;
      }

      .st8 {
        fill: #ffe369;
      }

      .st10 {
        fill: #864e20;
      }
    </style>
  </defs>
  <g id="_21-hungry">
    <circle class="st0" cx="24" cy="24" r="23"/>
    <path class="st8" d="M24,4c12.15,0,22,8.51,22,19h.97C46.38,10.31,35.62.5,22.93,1.1,11.07,1.65,1.58,11.14,1.02,23h.98C2,12.51,11.85,4,24,4Z"/>
    <path class="st3" d="M46,23c0,10.49-9.85,19-22,19S2,33.49,2,23h-.98c-.01.33-.02.67-.02,1,0,12.7,10.3,23,23,23s23-10.3,23-23c0-.33-.01-.67-.03-1h-.97Z"/>
    <ellipse class="st7" cx="37" cy="9" rx=".83" ry="1.15" transform="translate(4.48 28.81) rotate(-45.02)"/>
    <ellipse class="st7" cx="30.75" cy="4.5" rx=".41" ry=".57" transform="translate(5.83 23.07) rotate(-45.02)"/>
    <ellipse class="st7" cx="34" cy="7" rx="1.65" ry="2.3" transform="translate(5.02 26.1) rotate(-45.02)"/>
    <ellipse class="st4" cx="33" cy="16" rx="3" ry="4"/>
    <ellipse class="st4" cx="15" cy="16" rx="3" ry="4"/>
    <ellipse class="st2" cx="33" cy="16" rx="2" ry="3"/>
    <ellipse class="st2" cx="15" cy="16" rx="2" ry="3"/>
    <circle class="st7" cx="34" cy="15" r="1"/>
    <circle class="st7" cx="16" cy="15" r="1"/>
    <path class="st4" d="M9,26c0-.83,6.71-1,15-1s15,.17,15,1h0c0,6.75-8.18,11-15,11h0c-6.82,0-15-4.25-15-11Z"/>
    <path class="st6" d="M38.93,25.87c-.67,6.24-8.41,10.13-14.93,10.13s-14.26-3.89-14.93-10.13h0s-.06.08-.07.13c0,.38.03.77.09,1.15.04.26.09.51.16.77.02.07.03.14.05.21.63,2.1,1.93,3.94,3.7,5.23v5.65c0,1.1.9,2,2,2h0c1.1,0,2-.9,2-2h0v-2c0,1.1.9,2,2,2h0c1.1,0,2-.9,2-2v5c0,1.1.9,2,2,2h0c1.1,0,2-.9,2-2v-5.03s.1-.01.15-.01c.19-.01.38-.03.58-.05.23-.02.47-.05.7-.08.2-.03.39-.06.59-.1.23-.04.46-.08.7-.13.2-.04.39-.09.59-.14.23-.06.46-.11.68-.17.2-.06.39-.12.59-.18.22-.07.45-.14.67-.22.19-.07.38-.14.57-.21.22-.08.43-.17.65-.26.19-.08.37-.17.56-.25.21-.1.41-.2.62-.31.18-.09.36-.19.53-.29.2-.11.39-.23.58-.35.17-.11.34-.21.5-.32.19-.13.36-.26.54-.39.16-.12.31-.24.46-.36.17-.14.33-.29.5-.43.14-.13.28-.26.42-.39.15-.15.3-.31.44-.48.12-.14.25-.27.37-.42.14-.17.26-.34.38-.52.1-.15.21-.29.31-.44.12-.18.22-.38.32-.57.08-.15.17-.3.24-.46.1-.2.17-.42.25-.63.06-.15.12-.3.17-.46.07-.24.12-.48.17-.73.03-.14.07-.28.09-.42.05-.37.08-.75.08-1.12,0-.03,0-.06,0-.08,0-.05-.03-.09-.07-.12Z"/>
    <path class="st5" d="M19,38h0c-1.1,0-2-.9-2-2v1c0,1.1.9,2,2,2h0c1.1,0,2-.9,2-2v-1c0,1.1-.9,2-2,2Z"/>
    <path class="st5" d="M15,40h0c-1.1,0-2-.9-2-2v1c0,1.1.9,2,2,2h0c1.1,0,2-.9,2-2v-1c0,1.1-.9,2-2,2Z"/>
    <path class="st5" d="M23,43h0c-1.1,0-2-.9-2-2v1c0,1.1.9,2,2,2h0c1.1,0,2-.9,2-2v-1c0,1.1-.9,2-2,2Z"/>
  </g>
  <path class="st1" d="M18.4,12.19c-1.43-1.19-3.53-1.07-4.82.27l-1.04,1.04-1.04-1.04c-1.29-1.34-3.4-1.45-4.82-.26-1.4,1.26-1.52,3.41-.26,4.81.04.05.08.09.13.13l5.14,5.13c.47.47,1.22.48,1.7.01,0,0,0,0,.01-.01l5.14-5.14c1.33-1.33,1.33-3.49,0-4.82-.04-.04-.09-.09-.14-.13Z"/>
  <path class="st1" d="M41.32,12.19c-1.43-1.19-3.54-1.07-4.82.27l-1.04,1.04-1.04-1.04c-1.29-1.34-3.4-1.45-4.82-.26-1.4,1.26-1.52,3.41-.26,4.81.04.05.08.09.13.14l5.14,5.14c.46.47,1.22.48,1.69.01,0,0,0,0,.01-.01l5.14-5.14c1.34-1.33,1.34-3.48.01-4.82-.05-.05-.09-.09-.14-.13Z"/>
  <path class="st10" d="M34.8,26.69H13.2c-.63,0-1.14.51-1.15,1.14,0,.04,0,.08,0,.12.28,2.72,2.03,8.9,11.94,8.9s11.66-6.18,11.94-8.9c.07-.63-.39-1.19-1.02-1.25-.04,0-.08,0-.12,0Z"/>
  <path class="st9" d="M24,36.84c2.36.08,4.71-.4,6.85-1.39-.64-1-1.65-1.7-2.8-1.98-3.11-.69-4.05.25-4.05.25,0,0-.94-.94-4.05-.25-1.15.27-2.16.98-2.8,1.98,2.14.99,4.49,1.47,6.85,1.39Z"/>
</svg>