<?xml version="1.0" encoding="UTF-8"?>
<svg xmlns="http://www.w3.org/2000/svg" version="1.1" viewBox="0 0 48 48">
  <!-- Generator: Adobe Illustrator 29.6.1, SVG Export Plug-In . SVG Version: 2.1.1 Build 9)  -->
  <defs>
    <style>
      .st0, .st1 {
        fill: #4f813b;
      }

      .st2 {
        fill: #426704;
      }

      .st3 {
        opacity: .18;
      }

      .st4 {
        fill: #ffce52;
      }

      .st5, .st6 {
        fill: #78b300;
      }

      .st7 {
        opacity: .57;
      }

      .st1, .st8, .st9, .st6 {
        display: none;
      }

      .st8, .st10 {
        fill: #273941;
      }

      .st11 {
        fill: #141e21;
      }

      .st12 {
        fill: #ededed;
      }
    </style>
  </defs>
  <g id="Layer_1" class="st9">
    <g id="reference" class="st7">
      <g id="_21-hungry" class="st3">
        <circle id="ellipse" class="st4" cx="24" cy="24" r="23"/>
        <ellipse id="eye2" class="st10" cx="33" cy="16" rx="3" ry="4"/>
        <ellipse id="eye1" class="st10" cx="15" cy="16" rx="3" ry="4"/>
        <path id="mouth" class="st8" d="M9,26c0-.83,6.71-1,15-1s15,.17,15,1c0,6.75-8.18,11-15,11s-15-4.25-15-11Z"/>
      </g>
    </g>
  </g>
  <g id="Layer_2">
    <g id="_30-money">
      <path class="st5" d="M28,30.7h-8c-1.1,0-2,.9-2,2v6c0,3.29,2.66,5.97,5.95,6h.05c3.31,0,6-2.69,6-6v-6c0-1.1-.9-2-2-2Z"/>
      <path class="st10" d="M40,25.7c.02,3.02-1.04,5.94-2.99,8.24-1.88,2.18-4.29,3.82-7.01,4.76v-6c0-1.1-.9-2-2-2h-8c-1.1,0-2,.9-2,2v6c-5.34-1.92-10-6.43-10-13,.47,0,2.26.25,5.04.5s6.54.5,10.96.5c5.35,0,10.69-.34,16-1Z"/>
      <path class="st1" d="M33,15.7c-.55,0-1-.45-1-1s.45-1,1-1,1,.45,1,1h2c0-1.27-.81-2.39-2-2.82v-1.18h-2v1.18c-1.56.55-2.38,2.26-1.83,3.82.42,1.2,1.56,2,2.83,2,.55,0,1,.45,1,1s-.45,1-1,1-1-.45-1-1h-2c0,1.27.81,2.39,2,2.82v1.18h2v-1.18c1.56-.55,2.38-2.26,1.83-3.82-.42-1.2-1.56-2-2.83-2Z"/>
      <path class="st1" d="M15,15.7c-.55,0-1-.45-1-1s.45-1,1-1,1,.45,1,1h2c0-1.27-.81-2.39-2-2.82v-1.18h-2v1.18c-1.56.55-2.38,2.26-1.83,3.82.42,1.2,1.56,2,2.83,2,.55,0,1,.45,1,1s-.45,1-1,1-1-.45-1-1h-2c0,1.27.81,2.39,2,2.82v1.18h2v-1.18c1.56-.55,2.38-2.26,1.83-3.82-.42-1.2-1.56-2-2.83-2Z"/>
      <path class="st6" d="M33,15.7v2c.55,0,1,.45,1,1s-.45,1-1,1v3h1v-1.18c1.56-.55,2.38-2.26,1.83-3.82-.42-1.2-1.56-2-2.83-2Z"/>
      <path class="st6" d="M34,14.7h2c0-1.27-.81-2.39-2-2.82v-1.18h-1v3c.55,0,1,.45,1,1Z"/>
      <path class="st6" d="M16,18.7c0,.55-.45,1-1,1v3h1v-1.18c1.56-.55,2.38-2.26,1.83-3.82-.42-1.2-1.56-2-2.83-2v2c.55,0,1,.45,1,1Z"/>
      <path class="st6" d="M16,14.7h2c0-1.27-.81-2.39-2-2.82v-1.18h-1v3c.55,0,1,.45,1,1Z"/>
      <path class="st5" d="M28,30.7h-8c-1.1,0-2,.9-2,2v6c0,3.29,2.66,5.97,5.95,6h.05c3.31,0,6-2.69,6-6v-6c0-1.1-.9-2-2-2Z"/>
      <path class="st2" d="M24,42.7h-.05c-3.29-.03-5.95-2.71-5.95-6v2c0,3.29,2.66,5.97,5.95,6h.05c3.31,0,6-2.69,6-6v-2c0,3.31-2.69,6-6,6Z"/>
      <path class="st0" d="M28,30.7h-8c-1.1,0-2,.9-2,2v2c0-1.1.9-2,2-2h8c1.1,0,2,.9,2,2v-2c0-1.1-.9-2-2-2Z"/>
      <path class="st12" d="M24,36.7c-.55,0-1-.45-1-1s.45-1,1-1,1,.45,1,1h2c0-1.27-.81-2.39-2-2.82v-1.18h-2v1.18c-1.56.55-2.38,2.26-1.83,3.82.42,1.2,1.56,2,2.83,2,.55,0,1,.45,1,1s-.45,1-1,1-1-.45-1-1h-2c0,1.27.81,2.39,2,2.82v1.18h2v-1.18c1.56-.55,2.38-2.26,1.83-3.82-.42-1.2-1.56-2-2.83-2Z"/>
      <path class="st11" d="M24,28.7c5.29,0,10.58-.33,15.84-.98.11-.67.16-1.34.16-2.02-5.31.66-10.65,1-16,1-4.42,0-8.18-.25-10.96-.5s-4.57-.5-5.04-.5c0,.67.06,1.34.16,2.01.63.04,2.34.26,4.88.49,2.78.25,6.54.5,10.96.5Z"/>
      <path class="st11" d="M30,31.7h-.28c.18.3.28.65.28,1v6c.68-.25,1.35-.53,2-.86v-4.14c0-1.1-.9-2-2-2Z"/>
      <path class="st11" d="M18,32.7c0-.35.1-.7.28-1h-.28c-1.1,0-2,.9-2,2v4.14c.65.33,1.32.61,2,.86v-6Z"/>
    </g>
  </g>
</svg>