<?xml version="1.0" encoding="UTF-8"?>
<svg id="Layer_1" xmlns="http://www.w3.org/2000/svg" version="1.1" viewBox="0 0 24 24">
  <!-- Generator: Adobe Illustrator 29.6.1, SVG Export Plug-In . SVG Version: 2.1.1 Build 9)  -->
  <defs>
    <style>
      .st0 {
        fill: #f06880;
      }

      .st0, .st1, .st2, .st3, .st4 {
        display: none;
      }

      .st1, .st5 {
        fill: #864e20;
      }

      .st2 {
        fill: #101820;
      }

      .st3 {
        fill: #e7c930;
      }

      .st4 {
        fill: #f8de40;
      }
    </style>
  </defs>
  <rect class="st4" x="1" y="1" width="22" height="22" rx="7.66" ry="7.66"/>
  <path class="st3" d="M23,13.94c-2.76,4.14-7.43,6.6-12.41,6.53-5.54,0-6.56-1-9.14-2.53,1.1,3.04,3.98,5.06,7.2,5.06h6.69c4.23,0,7.66-3.43,7.66-7.66h0v-1.41h0Z"/>
  <path class="st2" d="M21.55,5.69c-.06-.29-2.89-.83-4.87-.83-1.15-.11-2.3.13-3.3.7-.43.22-.9.34-1.38.36-.48,0-.95-.13-1.38-.35-1-.57-2.15-.81-3.3-.7-1.98,0-4.81.54-4.87.83s-.11,1.22.09,1.38.44.03.48.6c.04.58.48,2.98,1.81,3.77,1.33.79,3.74.16,4.6-.36.92-.57,1.59-1.47,1.88-2.51.14-.89.35-1.51.7-1.51s.56.61.7,1.51c.29,1.04.96,1.94,1.88,2.51.85.53,3.26,1.15,4.6.36s1.77-3.19,1.81-3.77.28-.44.48-.6.15-1.09.09-1.38h-.02Z"/>
  <path class="st1" d="M13.31,14.13c.27-.22.43-.56.43-.91-.04-.57-.43-1.05-.98-1.2-.16-.06-.34.02-.4.18,0,.01,0,.03-.01.04h0c-.03.16.05.31.2.36.22.08.57.27.57.61,0,.43-.5.61-.52.62-.13.05-.21.17-.21.3,0,.14.09.25.23.29.3.09.5.37.5.68,0,.27-.37.45-.58.54-.06.02-.11.07-.15.12l-.1.02.06.24h0c.05.16.22.26.39.21h.02c.37-.15.98-.49.98-1.12,0-.38-.15-.74-.43-.98Z"/>
  <path class="st0" d="M19.1,13.01c-.52-.44-1.3-.39-1.77.1l-.38.38-.38-.38c-.47-.49-1.24-.54-1.77-.1-.51.46-.56,1.25-.09,1.76l.05.05,1.89,1.89c.17.17.45.17.62,0h0l1.89-1.89c.49-.49.49-1.28,0-1.77-.02-.02-.03-.03-.05-.05h-.01Z"/>
  <path class="st1" d="M14.93,12.17c-.25,0-.45.21-.44.46h0c-.01.69-.26,1.36-.71,1.89-.45.43-1.06.65-1.68.62-.62.04-1.23-.18-1.68-.61-.45-.53-.7-1.2-.71-1.89,0-.25-.19-.46-.44-.46s-.46.19-.46.44c0,.93.34,1.84.96,2.54.62.61,1.47.92,2.34.88.87.04,1.71-.28,2.33-.89.62-.7.96-1.6.96-2.54,0-.25-.21-.45-.46-.44h-.01Z"/>
  <path class="st5" d="M10.38,7.78l-.71-.28c-.43-.17-.85-.34-1.29-.5s-.87-.31-1.32-.44-.89-.26-1.34-.37h-.02c-.16-.03-.32.06-.36.22-.03.12.03.25.13.32h0c.4.25.8.48,1.2.71.23.12.46.24.69.35.15.08.21.25.14.4-.03.06-.08.1-.14.14-.23.11-.46.23-.69.35-.4.22-.82.45-1.21.7h-.02c-.14.1-.18.28-.09.43.07.1.2.15.32.13h.03c.46-.1.9-.23,1.35-.37s.88-.28,1.32-.44c.22-.08.43-.16.65-.24l.65-.26.7-.28c.15-.05.24-.22.19-.38-.03-.09-.09-.15-.18-.19h0Z"/>
  <path class="st5" d="M20.12,9.17c0,.14-.12.26-.26.25-.08,0-.16-.04-.2-.11-.21-.32-.49-.59-.8-.8-.82-.55-1.89-.55-2.72,0-.32.21-.6.49-.81.81-.08.12-.24.14-.36.06-.07-.05-.11-.12-.11-.2,0-.52.17-1.04.49-1.45.93-1.18,2.65-1.39,3.84-.45.17.13.32.28.45.45.32.41.49.92.49,1.45h-.01Z"/>
</svg>