<?xml version="1.0" encoding="UTF-8"?>
<svg id="Layer_1" xmlns="http://www.w3.org/2000/svg" version="1.1" viewBox="0 0 48 48">
  <!-- Generator: Adobe Illustrator 29.6.1, SVG Export Plug-In . SVG Version: 2.1.1 Build 9)  -->
  <defs>
    <style>
      .st0 {
        fill: #ffce52;
      }

      .st1 {
        fill: #273941;
      }

      .st2 {
        display: none;
      }

      .st3 {
        fill: #864e20;
      }
    </style>
  </defs>
  <g id="_21-hungry" class="st2">
    <circle class="st0" cx="24" cy="24" r="23"/>
    <ellipse class="st1" cx="33" cy="16" rx="3" ry="4"/>
    <ellipse class="st1" cx="15" cy="16" rx="3" ry="4"/>
    <path class="st1" d="M9,26c0-.83,6.71-1,15-1s15,.17,15,1h0c0,6.75-8.18,11-15,11h0c-6.82,0-15-4.25-15-11Z"/>
  </g>
  <path class="st3" d="M30.27,28.3c-.15-.85-.34-1.69-.59-2.52-.25-.85-.58-1.68-.99-2.47-.44-.86-1.04-1.62-1.77-2.25-.41-.33-.86-.6-1.35-.78-1.01-.38-2.12-.38-3.13,0-.49.19-.95.45-1.36.78-.73.63-1.33,1.39-1.77,2.25-.41.79-.74,1.62-.99,2.47-.25.83-.44,1.67-.59,2.51-.28,1.67-.43,3.37-.46,5.06,0,.89,0,1.77.04,2.65,0,.15.13.27.28.26.13,0,.24-.1.26-.24.13-.87.26-1.73.4-2.58.27-1.62.61-3.24,1.03-4.8.38-1.53.95-3.01,1.7-4.4.34-.62.8-1.17,1.34-1.62.97-.8,2.38-.8,3.35,0,.54.45,1,1,1.34,1.62.75,1.39,1.32,2.87,1.7,4.4.42,1.57.76,3.17,1.02,4.8.15.85.28,1.71.4,2.57.02.15.16.25.31.22.12-.02.22-.12.23-.25.04-.88.05-1.76.04-2.63-.02-1.7-.17-3.39-.45-5.07Z"/>
</svg>