<?xml version="1.0" encoding="UTF-8"?>
<svg id="Layer_1" xmlns="http://www.w3.org/2000/svg" version="1.1" viewBox="0 0 24 24">
  <!-- Generator: Adobe Illustrator 29.6.1, SVG Export Plug-In . SVG Version: 2.1.1 Build 9)  -->
  <defs>
    <style>
      .st0, .st1 {
        fill: #864e20;
      }

      .st0, .st2 {
        display: none;
      }

      .st3 {
        fill: #e7c930;
      }

      .st2 {
        fill: #f8de40;
      }
    </style>
  </defs>
  <rect class="st2" x="1" y="1" width="22" height="22" rx="7.66" ry="7.66"/>
  <path class="st0" d="M14.95,6.47c.38.21.73.4,1.08.58.47.24.93.47,1.4.68.11.06.24.1.35.15l.17.08c.06.03.12.05.18.07.12.05.24.1.35.15h.01c.12.05.24.1.36.15.24.11.5.19.76.3.13.06.26.1.4.16.09.03.13.13.1.22-.02.06-.07.1-.13.11h0c-.14.04-.29.07-.44.09-.29.04-.59.05-.89.03-.15-.01-.3-.02-.44-.04s-.29-.06-.44-.09c-.15-.03-.29-.08-.43-.13-.14-.06-.28-.1-.42-.16-.55-.25-1.05-.59-1.47-1.02-.32-.32-.59-.69-.78-1.11-.04-.09,0-.19.09-.23.05-.02.11-.02.15.01Z"/>
  <path class="st0" d="M16.94,8.81c.14.07.28.11.42.16.14.05.28.09.43.13.15.03.29.07.44.09s.3.03.44.04h.07c-.1.96-.96,1.66-1.92,1.55-.96-.1-1.66-.96-1.55-1.92.04-.34.17-.66.38-.92.38.35.82.64,1.3.86Z"/>
  <path class="st1" d="M7.3,15.35s3.75-2.12,6.62-2.31c2.87-.19,3.91.22,2.66.5s-2.91-.16-5.48.73-4.53,1.61-3.8,1.08Z"/>
  <path class="st3" d="M13.59,14.61c-1.38-.09-3.47,1.36-3.47,1.36-.43.38.6-.05,1.95-.57s2.07-.02,2.7-.14.2-.56-1.18-.64Z"/>
  <path class="st0" d="M9.76,6.46c.09.04.13.14.09.23-.19.41-.45.79-.78,1.11-.42.43-.92.77-1.47,1.02-.13.06-.28.11-.42.16-.14.05-.28.09-.43.13-.15.03-.29.07-.44.09s-.3.03-.44.04c-.3.02-.59.01-.89-.03-.15-.02-.29-.05-.44-.09h0c-.06-.01-.11-.05-.13-.11-.03-.09.01-.19.1-.22.14-.06.27-.11.4-.16.26-.11.51-.19.76-.3.12-.05.24-.1.36-.14h.01c.12-.05.24-.11.35-.15.06-.03.12-.04.18-.07l.17-.08c.12-.05.24-.09.35-.15.47-.21.93-.44,1.4-.68.35-.18.71-.37,1.08-.58.05-.03.1-.03.15-.01Z"/>
  <path class="st0" d="M8.92,7.95c.21.26.35.58.38.92.1.96-.59,1.82-1.55,1.92-.96.1-1.82-.59-1.92-1.55h.07c.14-.01.3-.02.44-.04s.29-.06.44-.09c.15-.03.29-.08.43-.13.14-.06.28-.1.42-.16.48-.21.91-.5,1.3-.86Z"/>
</svg>