<?xml version="1.0" encoding="UTF-8"?>
<svg id="Layer_1" xmlns="http://www.w3.org/2000/svg" version="1.1" xmlns:xlink="http://www.w3.org/1999/xlink" viewBox="0 0 48 48">
  <!-- Generator: Adobe Illustrator 29.6.1, SVG Export Plug-In . SVG Version: 2.1.1 Build 9)  -->
  <defs>
    <style>
      .st0 {
        fill: #ffce52;
      }

      .st0, .st1, .st2, .st3, .st4, .st5, .st6, .st7 {
        display: none;
      }

      .st1, .st8 {
        fill: #141e21;
      }

      .st2 {
        fill: #ffb32b;
      }

      .st3, .st9 {
        fill: #273941;
      }

      .st4 {
        fill: #00a3e1;
      }

      .st5 {
        fill: #3bc5f6;
      }

      .st6 {
        fill: url(#radial-gradient);
      }

      .st7 {
        fill: #f6fafd;
      }
    </style>
    <radialGradient id="radial-gradient" cx="-209.96" cy="277.53" fx="-209.96" fy="277.53" r="6" gradientTransform="translate(653.87 710.82) scale(3 -2.5)" gradientUnits="userSpaceOnUse">
      <stop offset="0" stop-color="#5987dd"/>
      <stop offset=".12" stop-color="#638bd6"/>
      <stop offset=".32" stop-color="#7d98c3"/>
      <stop offset=".57" stop-color="#a8aba3"/>
      <stop offset=".87" stop-color="#e3c678"/>
      <stop offset="1" stop-color="#ffd364"/>
    </radialGradient>
  </defs>
  <g id="_27-feel_bad">
    <circle class="st0" cx="24" cy="24" r="23"/>
    <ellipse class="st6" cx="24" cy="17" rx="18" ry="15"/>
    <path class="st2" d="M46,23c0,10.49-9.85,19-22,19S2,33.49,2,23h-.98c-.01.33-.02.67-.02,1,0,12.7,10.3,23,23,23s23-10.3,23-23c0-.33-.01-.67-.03-1h-.97Z"/>
    <ellipse class="st3" cx="33" cy="23" rx="3" ry="4"/>
    <ellipse class="st1" cx="33" cy="23" rx="2" ry="3"/>
    <circle class="st7" cx="34" cy="22" r="1"/>
    <ellipse class="st3" cx="15" cy="23" rx="3" ry="4"/>
    <ellipse class="st1" cx="15" cy="23" rx="2" ry="3"/>
    <circle class="st7" cx="16" cy="22" r="1"/>
    <path class="st1" d="M10,19v-2c3.72,0,6-1.3,6-2h2c0,2.63-4.02,4-8,4Z"/>
    <path class="st1" d="M38,19c-3.98,0-8-1.37-8-4h2c0,.7,2.28,2,6,2v2Z"/>
    <path class="st9" d="M24,35h-5.5c.14-2.9,2.6-5.13,5.5-5,2.9-.13,5.36,2.1,5.5,5h-5.5Z"/>
    <path class="st8" d="M24,31c2.51-.08,4.74,1.58,5.39,4h.11c-.14-2.9-2.6-5.13-5.5-5-2.9-.13-5.36,2.1-5.5,5h.11c.65-2.42,2.88-4.08,5.39-4Z"/>
    <path class="st5" d="M47,12c0,2.21-1.79,4-4,4s-4-1.79-4-4,3-8,4-8,4,5.79,4,8Z"/>
    <path class="st4" d="M43,4c-1,0-4,5.79-4,8s1.79,4,4,4,4-1.79,4-4-3-8-4-8ZM43,12.5c-1.56.09-2.9-1.1-3-2.67,0-1.47,2.25-5.33,3-5.33s3,3.86,3,5.33c-.1,1.56-1.44,2.75-3,2.67Z"/>
    <path class="st2" d="M43,16c-1.82,0-3.41-1.24-3.86-3.01-.08.33-.13.67-.14,1.01,0,2.21,1.79,4,4,4,1.07,0,2.09-.43,2.84-1.19-.17-.52-.36-1.03-.56-1.53-.67.47-1.47.72-2.28.72Z"/>
    <ellipse class="st7" cx="44" cy="11" rx=".83" ry="1.15" transform="translate(5.12 34.35) rotate(-45.02)"/>
    <ellipse class="st7" cx="44.75" cy="9.5" rx=".41" ry=".57" transform="translate(6.4 34.44) rotate(-45.02)"/>
    <ellipse class="st7" cx="36" cy="9" rx=".83" ry="1.15" transform="translate(4.19 28.1) rotate(-45.02)"/>
    <ellipse class="st7" cx="29.75" cy="4.5" rx=".41" ry=".57" transform="translate(5.54 22.36) rotate(-45.02)"/>
    <ellipse class="st7" cx="33" cy="7" rx="1.65" ry="2.3" transform="translate(4.72 25.39) rotate(-45.02)"/>
  </g>
</svg>