<?xml version="1.0" encoding="UTF-8"?>
<svg id="Layer_1" xmlns="http://www.w3.org/2000/svg" version="1.1" viewBox="0 0 48 48">
  <!-- Generator: Adobe Illustrator 29.6.1, SVG Export Plug-In . SVG Version: 2.1.1 Build 9)  -->
  <defs>
    <style>
      .st0 {
        fill: #f06880;
      }

      .st0, .st1, .st2, .st3, .st4, .st5, .st6, .st7, .st8, .st9, .st10, .st11 {
        display: none;
      }

      .st1 {
        fill: #141e21;
      }

      .st12 {
        fill: #ffce52;
      }

      .st2, .st13 {
        fill: #864e20;
      }

      .st3 {
        fill: #ffb32b;
      }

      .st4 {
        fill: #273941;
      }

      .st5 {
        fill: #00a3e1;
      }

      .st6 {
        fill: #3bc5f6;
      }

      .st7 {
        fill: #26a9e0;
      }

      .st9 {
        fill: #101820;
      }

      .st10 {
        fill: #f6fafd;
      }

      .st11 {
        fill: #ffe369;
      }
    </style>
  </defs>
  <g id="_21-hungry" class="st8">
    <circle class="st12" cx="24" cy="24" r="23"/>
    <path class="st11" d="M24,4c12.15,0,22,8.51,22,19h.97C46.38,10.31,35.62.5,22.93,1.1,11.07,1.65,1.58,11.14,1.02,23h.98C2,12.51,11.85,4,24,4Z"/>
    <path class="st3" d="M46,23c0,10.49-9.85,19-22,19S2,33.49,2,23h-.98c-.01.33-.02.67-.02,1,0,12.7,10.3,23,23,23s23-10.3,23-23c0-.33-.01-.67-.03-1h-.97Z"/>
    <ellipse class="st10" cx="37" cy="9" rx=".83" ry="1.15" transform="translate(4.48 28.81) rotate(-45.02)"/>
    <ellipse class="st10" cx="30.75" cy="4.5" rx=".41" ry=".57" transform="translate(5.83 23.07) rotate(-45.02)"/>
    <ellipse class="st10" cx="34" cy="7" rx="1.65" ry="2.3" transform="translate(5.02 26.1) rotate(-45.02)"/>
    <ellipse class="st4" cx="33" cy="16" rx="3" ry="4"/>
    <ellipse class="st4" cx="15" cy="16" rx="3" ry="4"/>
    <ellipse class="st1" cx="33" cy="16" rx="2" ry="3"/>
    <ellipse class="st1" cx="15" cy="16" rx="2" ry="3"/>
    <circle class="st10" cx="34" cy="15" r="1"/>
    <circle class="st10" cx="16" cy="15" r="1"/>
    <path class="st4" d="M9,26c0-.83,6.71-1,15-1s15,.17,15,1h0c0,6.75-8.18,11-15,11h0c-6.82,0-15-4.25-15-11Z"/>
    <path class="st6" d="M38.93,25.87c-.67,6.24-8.41,10.13-14.93,10.13s-14.26-3.89-14.93-10.13h0s-.06.08-.07.13c0,.38.03.77.09,1.15.04.26.09.51.16.77.02.07.03.14.05.21.63,2.1,1.93,3.94,3.7,5.23v5.65c0,1.1.9,2,2,2h0c1.1,0,2-.9,2-2h0v-2c0,1.1.9,2,2,2h0c1.1,0,2-.9,2-2v5c0,1.1.9,2,2,2h0c1.1,0,2-.9,2-2v-5.03s.1-.01.15-.01c.19-.01.38-.03.58-.05.23-.02.47-.05.7-.08.2-.03.39-.06.59-.1.23-.04.46-.08.7-.13.2-.04.39-.09.59-.14.23-.06.46-.11.68-.17.2-.06.39-.12.59-.18.22-.07.45-.14.67-.22.19-.07.38-.14.57-.21.22-.08.43-.17.65-.26.19-.08.37-.17.56-.25.21-.1.41-.2.62-.31.18-.09.36-.19.53-.29.2-.11.39-.23.58-.35.17-.11.34-.21.5-.32.19-.13.36-.26.54-.39.16-.12.31-.24.46-.36.17-.14.33-.29.5-.43.14-.13.28-.26.42-.39.15-.15.3-.31.44-.48.12-.14.25-.27.37-.42.14-.17.26-.34.38-.52.1-.15.21-.29.31-.44.12-.18.22-.38.32-.57.08-.15.17-.3.24-.46.1-.2.17-.42.25-.63.06-.15.12-.3.17-.46.07-.24.12-.48.17-.73.03-.14.07-.28.09-.42.05-.37.08-.75.08-1.12,0-.03,0-.06,0-.08,0-.05-.03-.09-.07-.12Z"/>
    <path class="st5" d="M19,38h0c-1.1,0-2-.9-2-2v1c0,1.1.9,2,2,2h0c1.1,0,2-.9,2-2v-1c0,1.1-.9,2-2,2Z"/>
    <path class="st5" d="M15,40h0c-1.1,0-2-.9-2-2v1c0,1.1.9,2,2,2h0c1.1,0,2-.9,2-2v-1c0,1.1-.9,2-2,2Z"/>
    <path class="st5" d="M23,43h0c-1.1,0-2-.9-2-2v1c0,1.1.9,2,2,2h0c1.1,0,2-.9,2-2v-1c0,1.1-.9,2-2,2Z"/>
  </g>
  <path class="st0" d="M18.4,12.19c-1.43-1.19-3.53-1.07-4.82.27l-1.04,1.04-1.04-1.04c-1.29-1.34-3.4-1.45-4.82-.26-1.4,1.26-1.52,3.41-.26,4.81.04.05.08.09.13.13l5.14,5.13c.47.47,1.22.48,1.7.01,0,0,0,0,.01-.01l5.14-5.14c1.33-1.33,1.33-3.49,0-4.82-.04-.04-.09-.09-.14-.13Z"/>
  <path class="st0" d="M41.32,12.19c-1.43-1.19-3.54-1.07-4.82.27l-1.04,1.04-1.04-1.04c-1.29-1.34-3.4-1.45-4.82-.26-1.4,1.26-1.52,3.41-.26,4.81.04.05.08.09.13.14l5.14,5.14c.46.47,1.22.48,1.69.01,0,0,0,0,.01-.01l5.14-5.14c1.34-1.33,1.34-3.48.01-4.82-.05-.05-.09-.09-.14-.13Z"/>
  <path class="st2" d="M34.8,26.69H13.2c-.63,0-1.14.51-1.15,1.14,0,.04,0,.08,0,.12.28,2.72,2.03,8.9,11.94,8.9s11.66-6.18,11.94-8.9c.07-.63-.39-1.19-1.02-1.25-.04,0-.08,0-.12,0Z"/>
  <path class="st0" d="M24,36.84c2.36.08,4.71-.4,6.85-1.39-.64-1-1.65-1.7-2.8-1.98-3.11-.69-4.05.25-4.05.25,0,0-.94-.94-4.05-.25-1.15.27-2.16.98-2.8,1.98,2.14.99,4.49,1.47,6.85,1.39Z"/>
  <path class="st9" d="M42.23,11.42c-.12-.55-5.51-1.58-9.3-1.58-2.19-.21-4.39.25-6.3,1.34-.82.43-1.72.66-2.64.68-.92-.02-1.82-.25-2.64-.67-1.91-1.08-4.11-1.55-6.3-1.34-3.78,0-9.18,1.03-9.3,1.58s-.22,2.32.17,2.64.84.05.91,1.14c.07,1.1.91,5.68,3.45,7.19,2.54,1.51,7.14.31,8.78-.7,1.76-1.09,3.04-2.8,3.59-4.79.26-1.7.67-2.88,1.34-2.88s1.08,1.17,1.34,2.88c.55,1.99,1.83,3.7,3.59,4.79,1.63,1.01,6.23,2.2,8.78.7s3.38-6.09,3.45-7.19.53-.84.91-1.14.28-2.09.16-2.64Z"/>
  <path class="st2" d="M26.23,31.53c.63-.52,1.01-1.29,1.01-2.11-.09-1.32-1.01-2.44-2.29-2.79-.38-.14-.79.05-.93.43-.01.03-.02.07-.03.1h0c-.07.36.13.72.47.84.5.19,1.34.63,1.34,1.43,0,.99-1.16,1.42-1.2,1.43-.29.11-.49.39-.49.7,0,.32.22.59.53.68.69.22,1.16.86,1.16,1.58,0,.63-.85,1.05-1.36,1.26-.14.06-.26.15-.34.28l-.23.06.14.57h0c.11.38.52.6.9.49.02,0,.04-.01.06-.02.85-.34,2.28-1.13,2.28-2.61.01-.87-.36-1.71-1.01-2.29Z"/>
  <path class="st0" d="M39.71,28.93c-1.22-1.01-3.02-.91-4.12.23l-.89.89-.89-.89c-1.1-1.14-2.9-1.25-4.12-.23-1.19,1.07-1.29,2.91-.22,4.11.04.04.07.08.11.11l4.39,4.39c.4.4,1.05.4,1.45,0,0,0,0,0,0,0l4.39-4.39c1.14-1.14,1.14-2.98,0-4.12-.04-.04-.07-.07-.11-.11Z"/>
  <path class="st2" d="M35.05,27.17c-1.87-.38-3.52-1.43-4.66-2.96-1.21-1.43-3.25-1.83-4.91-.98-.64.45-1.15,1.06-1.48,1.77-.33-.71-.84-1.32-1.48-1.77-1.67-.85-3.7-.44-4.91.98-1.14,1.53-2.8,2.58-4.66,2.96-.37,0-.67.31-.67.69,0,.12.04.24.1.34,1.12,1.93,3.27,3.01,5.48,2.76,3.65-.21,5.42-1.5,6.14-2.81.72,1.31,2.49,2.6,6.14,2.81,2.22.25,4.38-.84,5.5-2.78.19-.32.07-.73-.25-.92-.1-.06-.22-.09-.34-.09Z"/>
  <path class="st9" d="M38.67,13.99c-.1-.44-4.43-1.27-7.48-1.27-1.76-.17-3.53.2-5.07,1.07-.66.34-1.38.53-2.12.55-.74-.01-1.46-.2-2.12-.54-1.54-.87-3.31-1.25-5.07-1.07-3.04,0-7.38.83-7.48,1.27s-.17,1.87.14,2.12.67.04.73.92c.06.88.73,4.57,2.78,5.78,2.04,1.21,5.74.25,7.06-.56,1.41-.88,2.44-2.25,2.89-3.86.21-1.37.54-2.31,1.07-2.31s.87.94,1.07,2.31c.44,1.6,1.48,2.98,2.89,3.85,1.31.81,5.01,1.77,7.06.56s2.72-4.9,2.78-5.78.42-.67.73-.92.23-1.68.13-2.12Z"/>
  <path class="st2" d="M18.31,18.69c0,.18-.15.31-.33.31-.1,0-.19-.05-.25-.14-.26-.39-.6-.73-.99-.99-1.01-.67-2.33-.67-3.34,0-.4.26-.73.6-1,.99-.1.14-.3.18-.44.08-.08-.06-.13-.15-.14-.25,0-.65.21-1.28.6-1.79,1.15-1.46,3.27-1.71,4.72-.56.21.16.39.35.56.56.4.51.61,1.14.6,1.78Z"/>
  <path class="st2" d="M35.6,18.69c0,.18-.15.31-.33.31-.1,0-.19-.05-.25-.14-.26-.39-.6-.73-.99-.99-1.01-.67-2.33-.67-3.34,0-.4.26-.73.6-1,.99-.1.14-.3.18-.44.08-.08-.06-.13-.15-.14-.25,0-.65.21-1.28.6-1.79,1.15-1.46,3.27-1.71,4.72-.56.21.16.39.35.56.56.4.51.61,1.14.6,1.78Z"/>
  <path class="st7" d="M37.63,5.4l-.21-.03c.53.34,1.04.72,1.52,1.12,3.62.68,3.8,1.35,3.8,1.35s-.23.85-5.24,1.59c-4.47.59-8.98.87-13.49.83-4.51.04-9.02-.24-13.49-.83-5.02-.75-5.24-1.59-5.24-1.59s.18-.68,3.8-1.35c.48-.41.99-.78,1.52-1.12l-.21.03c-5.37.8-5.99,1.78-5.99,2.45s.62,1.65,5.99,2.44c4.52.6,9.07.88,13.63.84,4.56.04,9.11-.24,13.63-.84,5.37-.8,5.99-1.78,5.99-2.45s-.62-1.65-5.99-2.45Z"/>
  <path class="st13" d="M13.96,12.46c-1.96,0-3.55,1.58-3.55,3.54s1.58,3.55,3.54,3.55c1.96,0,3.55-1.58,3.55-3.54,0,0,0,0,0,0,0-1.95-1.59-3.54-3.54-3.54Z"/>
  <path class="st13" d="M34.05,12.46c-1.96,0-3.55,1.58-3.55,3.53,0,1.96,1.58,3.55,3.53,3.55,1.96,0,3.55-1.58,3.55-3.53,0,0,0,0,0-.01,0-1.95-1.58-3.54-3.53-3.54Z"/>
  <path class="st2" d="M26,30.17l2.21-2.21c.44-.44.44-1.15,0-1.59h0s-.42-.42-.42-.42c-.44-.44-1.15-.44-1.59,0l-2.21,2.21-2.21-2.21c-.44-.44-1.15-.44-1.59,0l-.42.42c-.44.44-.44,1.15,0,1.59h0s2.21,2.21,2.21,2.21l-2.21,2.21c-.44.44-.44,1.15,0,1.59h0s.42.42.42.42c.44.44,1.15.44,1.59,0l2.21-2.21,2.21,2.21c.44.44,1.15.44,1.59,0l.42-.42c.44-.44.44-1.15,0-1.59h0s-2.21-2.21-2.21-2.21Z"/>
</svg>