<?xml version="1.0" encoding="UTF-8"?>
<svg xmlns="http://www.w3.org/2000/svg" version="1.1" viewBox="0 0 48 48">
  <!-- Generator: Adobe Illustrator 29.6.1, SVG Export Plug-In . SVG Version: 2.1.1 Build 9)  -->
  <defs>
    <style>
      .st0 {
        fill: #f06880;
      }

      .st0, .st1, .st2, .st3 {
        display: none;
      }

      .st4 {
        opacity: .18;
      }

      .st5 {
        fill: #ffce52;
      }

      .st1 {
        fill: #864e20;
      }

      .st6 {
        opacity: .57;
      }

      .st2, .st7 {
        fill: #273941;
      }

      .st8 {
        fill: #101820;
      }
    </style>
  </defs>
  <g id="Layer_1" class="st3">
    <g id="reference" class="st6">
      <g id="_21-hungry" class="st4">
        <circle id="ellipse" class="st5" cx="24" cy="24" r="23"/>
        <ellipse id="eye2" class="st7" cx="33" cy="16" rx="3" ry="4"/>
        <ellipse id="eye1" class="st7" cx="15" cy="16" rx="3" ry="4"/>
        <path id="mouth" class="st2" d="M9,26c0-.83,6.71-1,15-1s15,.17,15,1c0,6.75-8.18,11-15,11s-15-4.25-15-11Z"/>
      </g>
    </g>
  </g>
  <g id="Layer_3">
    <path class="st8" d="M42.51,13.07c-.12-.56-5.59-1.61-9.44-1.61-2.22-.22-4.45.26-6.39,1.36-.83.43-1.74.67-2.68.69-.93-.02-1.85-.25-2.68-.68-1.94-1.1-4.17-1.57-6.39-1.36-3.84,0-9.31,1.05-9.44,1.61s-.22,2.36.17,2.68.85.05.92,1.16c.07,1.11.92,5.77,3.5,7.3,2.58,1.53,7.25.32,8.91-.71,1.78-1.11,3.08-2.84,3.64-4.86.27-1.73.68-2.92,1.36-2.92s1.09,1.19,1.36,2.92c.56,2.02,1.86,3.76,3.65,4.86,1.65,1.02,6.32,2.24,8.91.71s3.43-6.18,3.5-7.3.53-.85.92-1.16.29-2.12.17-2.68Z"/>
    <path class="st1" d="M31.91,27.89c-2.04-2.19-4.91-3.43-7.91-3.39-3-.04-5.87,1.2-7.91,3.39-1.86,2.5-.28,5.17,1.71,5,2-.16,5.39-.55,6.2-.55s4.2.39,6.2.55c2,.16,3.56-2.5,1.71-5Z"/>
    <path class="st0" d="M27.39,29.27c-2.6-.58-3.39.21-3.39.21,0,0-.79-.79-3.39-.21-1.64.54-2.87,1.93-3.2,3.62.13.01.27.01.4,0,2-.16,5.39-.55,6.2-.55s4.2.39,6.2.55c.13.01.27.01.4,0-.34-1.7-1.57-3.09-3.22-3.62Z"/>
  </g>
</svg>