<?xml version="1.0" encoding="UTF-8"?>
<svg id="Layer_1" xmlns="http://www.w3.org/2000/svg" version="1.1" xmlns:xlink="http://www.w3.org/1999/xlink" viewBox="0 0 48 48">
  <!-- Generator: Adobe Illustrator 29.6.1, SVG Export Plug-In . SVG Version: 2.1.1 Build 9)  -->
  <defs>
    <style>
      .st0 {
        fill: #ffce52;
      }

      .st0, .st1, .st2, .st3, .st4, .st5, .st6, .st7, .st8 {
        display: none;
      }

      .st1 {
        fill: #141e21;
      }

      .st2 {
        fill: url(#radial-gradient1);
      }

      .st3 {
        fill: #ffb32b;
      }

      .st4 {
        fill: #273941;
      }

      .st5 {
        fill: #00a3e1;
      }

      .st6 {
        fill: url(#radial-gradient);
      }

      .st7 {
        fill: #f6fafd;
      }

      .st8 {
        fill: #ffe369;
      }
    </style>
    <radialGradient id="radial-gradient" cx="35" cy="21" fx="35" fy="21" r="6" gradientTransform="translate(0 50) scale(1 -1)" gradientUnits="userSpaceOnUse">
      <stop offset="0" stop-color="#ff568d"/>
      <stop offset=".45" stop-color="#ff9678"/>
      <stop offset=".82" stop-color="#ffc26a"/>
      <stop offset="1" stop-color="#ffd364"/>
    </radialGradient>
    <radialGradient id="radial-gradient1" cx="13" cy="21" fx="13" fy="21" r="6" gradientTransform="translate(0 50) scale(1 -1)" gradientUnits="userSpaceOnUse">
      <stop offset="0" stop-color="#ff568d"/>
      <stop offset=".45" stop-color="#ff9678"/>
      <stop offset=".82" stop-color="#ffc26a"/>
      <stop offset="1" stop-color="#ffd364"/>
    </radialGradient>
  </defs>
  <g id="_07-feeling">
    <circle class="st0" cx="24" cy="24" r="23"/>
    <path class="st8" d="M24,4c12.15,0,22,8.51,22,19h.97C46.38,10.31,35.62.5,22.93,1.1,11.07,1.65,1.58,11.14,1.02,23h.98C2,12.51,11.85,4,24,4Z"/>
    <path class="st3" d="M46,23c0,10.49-9.85,19-22,19S2,33.49,2,23h-.98c-.01.33-.02.67-.02,1,0,12.7,10.3,23,23,23s23-10.3,23-23c0-.33-.01-.67-.03-1h-.97Z"/>
    <ellipse class="st7" cx="36.5" cy="8.5" rx=".83" ry="1.15" transform="translate(4.69 28.31) rotate(-45.02)"/>
    <ellipse class="st7" cx="30.25" cy="4" rx=".41" ry=".57" transform="translate(6.04 22.57) rotate(-45.02)"/>
    <ellipse class="st7" cx="33.5" cy="6.5" rx="1.65" ry="2.3" transform="translate(5.22 25.6) rotate(-45.02)"/>
    <circle class="st6" cx="35" cy="29" r="6"/>
    <circle class="st2" cx="13" cy="29" r="6"/>
    <path class="st7" d="M15,13c-.21,0-.41.02-.62.05,1.47.25,2.62,1.91,2.62,3.95,0,2.21-1.34,4-3,4s-3-1.79-3-4c0-.85.21-1.68.62-2.42-1.07,1.22-1.65,2.79-1.62,4.42,0,3.31,2.24,6,5,6s5-2.69,5-6-2.24-6-5-6Z"/>
    <path class="st4" d="M14,21c1.66,0,3-1.79,3-4,0-2.04-1.15-3.7-2.62-3.95-1.07.18-2.04.72-2.76,1.53-.41.74-.63,1.57-.62,2.42,0,2.21,1.34,4,3,4Z"/>
    <ellipse class="st1" cx="14" cy="17" rx="2" ry="3"/>
    <circle class="st7" cx="13" cy="16" r="1"/>
    <path class="st7" d="M33,13c-.21,0-.41.02-.62.05,1.47.25,2.62,1.91,2.62,3.95,0,2.21-1.34,4-3,4s-3-1.79-3-4c0-.85.21-1.68.62-2.42-1.07,1.22-1.65,2.79-1.62,4.42,0,3.31,2.24,6,5,6s5-2.69,5-6-2.24-6-5-6Z"/>
    <path class="st4" d="M32,21c1.66,0,3-1.79,3-4,0-2.04-1.15-3.7-2.62-3.95-1.07.18-2.04.72-2.76,1.53-.41.74-.63,1.57-.62,2.42,0,2.21,1.34,4,3,4Z"/>
    <ellipse class="st1" cx="32" cy="17" rx="2" ry="3"/>
    <circle class="st7" cx="31" cy="16" r="1"/>
    <path class="st4" d="M24,39c-1.66,0-3-1.35-3-3,0-.74.27-1.45.76-2-1.11-1.23-1-3.13.23-4.24,1.23-1.11,3.13-1,4.24.23.49.55.77,1.26.77,2h-2c0-.55-.45-1-1-1s-1,.45-1,1,.45,1,1,1,1,.45,1,1-.45,1-1,1-1,.45-1,1,.45,1,1,1,1-.45,1-1h2c0,1.66-1.34,3-3,3Z"/>
    <path class="st4" d="M39.22,13.62c-1.95-2.64-4.95-4.33-8.22-4.62v-2c3.89.29,7.45,2.25,9.78,5.38l-1.56,1.25Z"/>
    <path class="st4" d="M8.78,13.62l-1.56-1.25c2.33-3.13,5.9-5.09,9.78-5.38v2c-3.28.29-6.27,1.97-8.22,4.62Z"/>
    <path class="st5" d="M5,0c-.55,0-1,.45-1,1v5.18c-.32-.12-.66-.18-1-.18-1.66,0-3,1.34-3,3s1.34,3,3,3,3-1.34,3-3V2.05c1.26.12,3,.55,3,1.95h2c0-1.93-1.58-4-6-4Z"/>
  </g>
</svg>